<?xml version="1.0" encoding="utf-8"?>
<!-- Generator: Adobe Illustrator 18.0.0, SVG Export Plug-In . SVG Version: 6.00 Build 0)  -->
<!DOCTYPE svg PUBLIC "-//W3C//DTD SVG 1.1//EN" "http://www.w3.org/Graphics/SVG/1.1/DTD/svg11.dtd">
<svg version="1.1" id="Шар_1" xmlns="http://www.w3.org/2000/svg" xmlns:xlink="http://www.w3.org/1999/xlink" x="0px" y="0px"
	 viewBox="0 0 1417.3 1417.3" enable-background="new 0 0 1417.3 1417.3" xml:space="preserve">
<rect fill="#333333" width="1417.3" height="1417.3"/>
<text transform="matrix(1 0 0 1 332 1388.5)" fill="#565555" font-family="'Impact'" font-size="750"> </text>
<polyline fill="none" stroke="#FFFFFF" stroke-width="50" stroke-miterlimit="10" points="462,68.8 68.8,68.8 68.8,1348.5 
	362,1348.5 1348.5,1348.5 1348.5,976 "/>
<rect x="147" y="1016" fill="#FFFFFF" stroke="#FFFFFF" stroke-width="50" stroke-miterlimit="10" width="265" height="265"/>
<rect x="504.5" y="1016" fill="#FFFFFF" stroke="#FFFFFF" stroke-width="50" stroke-miterlimit="10" width="265" height="265"/>
<rect x="504.5" y="661" fill="#9AA5D4" stroke="#9AA5D4" stroke-width="50" stroke-miterlimit="10" width="265" height="265"/>
<rect x="944.5" y="561.2" transform="matrix(0.9556 0.2947 -0.2947 0.9556 252.229 -286.5675)" fill="#FFFFFF" stroke="#FFFFFF" stroke-width="50" stroke-miterlimit="10" width="265" height="265"/>
<rect x="1079.5" y="83.7" transform="matrix(0.9691 0.2467 -0.2467 0.9691 90.7814 -292.3063)" fill="#9AA5D4" stroke="#9AA5D4" stroke-width="50" stroke-miterlimit="10" width="265" height="265"/>
<rect x="537.7" y="168.5" transform="matrix(0.9881 -0.1541 0.1541 0.9881 -38.3723 106.842)" fill="#9AA5D4" stroke="#9AA5D4" stroke-width="50" stroke-miterlimit="10" width="265" height="265"/>
<rect x="869.5" y="1016" fill="#9AA5D4" stroke="#9AA5D4" stroke-width="50" stroke-miterlimit="10" width="265" height="265"/>
<rect x="147" y="661" fill="#FFFFFF" stroke="#FFFFFF" stroke-width="50" stroke-miterlimit="10" width="265" height="265"/>
<rect x="147" y="301" fill="#9AA5D4" stroke="#9AA5D4" stroke-width="50" stroke-miterlimit="10" width="265" height="265"/>
</svg>
