<?xml version="1.0" encoding="utf-8"?>
<!-- Generator: Adobe Illustrator 16.0.1, SVG Export Plug-In . SVG Version: 6.00 Build 0)  -->
<!DOCTYPE svg PUBLIC "-//W3C//DTD SVG 1.1//EN" "http://www.w3.org/Graphics/SVG/1.1/DTD/svg11.dtd">
<svg version="1.1" xmlns="http://www.w3.org/2000/svg" xmlns:xlink="http://www.w3.org/1999/xlink" x="0px" y="0px" width="48px"
	 height="48px" viewBox="0 0 48 48" enable-background="new 0 0 48 48" xml:space="preserve">
<g id="Слой_1">
	<polyline fill="none" stroke="#FFFFFF" stroke-width="3" stroke-miterlimit="10" points="40,46.5 1.5,46.5 1.5,9 	"/>
	<polyline fill="none" stroke="#9AA5D4" stroke-width="3" stroke-miterlimit="10" points="9.025,31.48 13.738,24.203 19.975,32.38 
		29.748,17.827 36.477,26.801 42,17.411 	"/>
</g>
<g id="Слой_2" display="none">
	
		<circle display="inline" fill="none" stroke="#FFFFFF" stroke-width="3" stroke-miterlimit="10" cx="24.182" cy="24.068" r="22.235"/>
	<circle display="inline" fill="none" stroke="#9AA5D4" stroke-width="3" stroke-miterlimit="10" cx="24.112" cy="31.467" r="5.4"/>
	
		<circle display="inline" fill="#FFFFFF" stroke="#FFFFFF" stroke-width="3" stroke-miterlimit="10" cx="8.004" cy="24.277" r="1.011"/>
	
		<circle display="inline" fill="#FFFFFF" stroke="#FFFFFF" stroke-width="3" stroke-miterlimit="10" cx="40.347" cy="24.277" r="1.011"/>
	
		<circle display="inline" fill="#FFFFFF" stroke="#FFFFFF" stroke-width="3" stroke-miterlimit="10" cx="22.154" cy="8.105" r="1.011"/>
	<path display="inline" fill="#FFFFFF" stroke="#FFFFFF" stroke-width="3" stroke-miterlimit="10" d="M13.058,14.169
		c0,0.56-0.454,1.01-1.011,1.01c-0.561,0-1.011-0.45-1.011-1.01c0-0.557,0.45-1.011,1.011-1.011
		C12.604,13.158,13.058,13.612,13.058,14.169z"/>
	
		<line display="inline" fill="none" stroke="#9AA5D4" stroke-width="3" stroke-miterlimit="10" x1="25.706" y1="27.592" x2="33.217" y2="9.478"/>
</g>
<g id="Слой_3" display="none">
	<rect x="1.5" y="1.5" fill="none" stroke="#555555" stroke-width="3" stroke-miterlimit="10" width="45" height="45"/>
	<polyline display="inline" fill="none" stroke="#9AA5D4" stroke-width="3" stroke-miterlimit="10" points="42.391,8.657 
		21.157,29.891 13.989,22.722 	"/>
	<circle fill="none" stroke="#555555" stroke-width="3" stroke-miterlimit="10" cx="24.14" cy="24.027" r="22.177"/>
	<polyline display="inline" fill="none" stroke="#FFFFFF" stroke-width="3" stroke-miterlimit="10" points="39.5,19 39.5,42.5 
		7.5,42.5 7.5,10.5 31,10.5 	"/>
</g>
<g id="Слой_4" display="none">
	<path display="inline" fill="none" stroke="#555555" stroke-width="3" stroke-miterlimit="10" d="M19.917,28.909"/>
	<path display="inline" fill="none" stroke="#555555" stroke-width="3" stroke-miterlimit="10" d="M8.5,40.229"/>
	<polyline display="inline" fill="none" stroke="#555555" stroke-width="3" stroke-miterlimit="10" points="40.5,29 40.5,40.5 
		8.5,40.5 8.5,8.5 20,8.5 	"/>
	<polyline display="inline" fill="none" stroke="#555555" stroke-width="3" stroke-miterlimit="10" points="26,5.5 42.5,5.5 
		42.5,22 	"/>
	
		<line display="inline" fill="none" stroke="#555555" stroke-width="3" stroke-miterlimit="10" x1="42.5" y1="5.5" x2="26" y2="21.5"/>
</g>
</svg>
